<svg xmlns="http://www.w3.org/2000/svg" width="24" height="24" viewBox="0 0 24 24">
  <!-- 化语智答 Logo: 语言气泡 + 智慧光芒 -->
  <defs>
    <linearGradient id="grad" x1="0%" y1="0%" x2="100%" y2="100%">
      <stop offset="0%" style="stop-color:#6366f1"/>
      <stop offset="100%" style="stop-color:#8b5cf6"/>
    </linearGradient>
  </defs>
  <!-- 语言气泡主体 -->
  <path fill="url(#grad)" d="M20 2H4c-1.1 0-2 .9-2 2v12c0 1.1.9 2 2 2h4l4 4 4-4h4c1.1 0 2-.9 2-2V4c0-1.1-.9-2-2-2z"/>
  <!-- 智慧之光 - 三条线代表知识辐射 -->
  <path fill="white" d="M12 6.5c-.28 0-.5.22-.5.5v1c0 .28.22.5.5.5s.5-.22.5-.5V7c0-.28-.22-.5-.5-.5z"/>
  <path fill="white" d="M7.05 8.05a.5.5 0 0 0-.707.707l.707.707a.5.5 0 1 0 .707-.707l-.707-.707z"/>
  <path fill="white" d="M16.95 8.05l-.707.707a.5.5 0 1 0 .707.707l.707-.707a.5.5 0 0 0-.707-.707z"/>
  <!-- 对话文字线 -->
  <rect fill="white" x="7" y="10" width="10" height="1.2" rx="0.6"/>
  <rect fill="white" x="7" y="12.5" width="7" height="1.2" rx="0.6"/>
</svg>
